<?xml version="1.0" encoding="UTF-8"?>
<svg xmlns="http://www.w3.org/2000/svg" version="1.1" viewBox="0 0 841.89 595.28">
  <defs>
    <style>
      .cls-1, .cls-2 {
        fill: #27ad65;
      }

      .cls-3, .cls-4 {
        fill: #facc17;
      }

      .cls-5 {
        letter-spacing: 0em;
      }

      .cls-5, .cls-4 {
        font-family: DalekPinpointBold, 'Dalek Pinpoint';
      }

      .cls-2 {
        font-size: 111.37px;
      }

      .cls-6 {
        font-family: Almalik-Regular, Almalik;
      }

      .cls-4 {
        font-size: 69.95px;
      }
    </style>
  </defs>
  <!-- Generator: Adobe Illustrator 28.6.0, SVG Export Plug-In . SVG Version: 1.2.0 Build 709)  -->
  <g>
    <g id="Layer_1">
      <g>
        <path class="cls-3" d="M230.35,246.72c.49,1.23.97,2.44,1.45,3.65.35.88.7,1.76,1.04,2.64.03.07.02.19-.03.24-.26.31-.3.66-.09.94.2.27.55.38.85.25.31-.13.51-.46.45-.76-.07-.39-.33-.6-.75-.62-.02,0-.05,0-.09,0-.85-2.14-1.7-4.29-2.55-6.42.02-.03.03-.04.03-.04.51-.24.5-.23.87.18,1.19,1.3,2.39,2.6,3.59,3.9.55.6,1.1,1.19,1.65,1.79.34.37.51.82.53,1.32.05,1.3.09,2.59.14,3.89,0,.18-.04.26-.21.33-1.28.51-2.55,1.03-3.82,1.56-.16.07-.25.04-.36-.09-.82-.92-1.65-1.83-2.49-2.74-.46-.5-.68-1.07-.68-1.75-.02-2.61-.05-5.22-.08-7.83,0-.16.03-.26.19-.3.11-.03.22-.08.36-.14Z"/>
        <path class="cls-3" d="M231.06,244.26c2.52-.54,4.93-.3,7.24.82,2.3,1.12,3.98,2.86,5.06,5.19.25-.1.49-.19.75-.29.26.65.51,1.29.78,1.96-.66.26-1.3.52-1.96.78-.26-.66-.52-1.3-.78-1.96.22-.09.41-.17.64-.27-1.02-2.2-2.61-3.83-4.77-4.88-2.26-1.1-4.62-1.3-7.07-.67.08.2.14.37.22.58-.65.26-1.3.52-1.95.78-.08-.2-.16-.38-.23-.56-4.37,2.11-6.62,7.59-4.94,12.2.23-.09.46-.18.71-.27.26.66.52,1.3.78,1.96-.66.26-1.3.51-1.96.78-.26-.66-.52-1.31-.78-1.96.23-.1.44-.18.66-.27-.8-2.44-.78-4.86.13-7.26.91-2.39,2.5-4.22,4.69-5.55-.28.11-.56.22-.84.33-1.49.59-2.98,1.19-4.48,1.78-.11.04-.18.08-.19.23-.02.41-.25.65-.62.71-.34.05-.68-.14-.79-.44-.13-.33-.02-.69.27-.89.29-.2.66-.17.94.1.11.11.19.07.3.03,1.51-.6,3.03-1.2,4.54-1.8.41-.16.82-.33,1.25-.5-.07-.19-.13-.36-.21-.56.65-.26,1.3-.52,1.95-.78.08.19.15.35.23.54.13-.04.25-.08.36-.13,1.91-.76,3.82-1.52,5.74-2.28.13-.05.18-.11.19-.25.02-.36.26-.62.6-.67.35-.05.67.12.8.43.14.33.04.69-.25.89-.27.2-.67.18-.92-.07-.09-.09-.16-.12-.29-.07-1.89.76-3.78,1.51-5.67,2.26-.03.01-.07.03-.1.04Z"/>
        <path class="cls-3" d="M237.68,258.44c.2.5.39.98.59,1.48-1.45.57-2.88,1.14-4.33,1.72-.2-.5-.39-.98-.59-1.48,1.45-.58,2.88-1.14,4.33-1.72Z"/>
      </g>
      <g>
        <path class="cls-3" d="M263.93,317.42c-.4,3.05-1.65,4.15-4.55,4.15-1.79,0-3.58,0-5.6,0,.5.64.86,1.12,1.24,1.59,1.94,2.43,3.87,4.87,5.83,7.3.55.68.74,1.36.06,2.02-.57.56-1.34.37-2.02-.49-2.55-3.18-5.09-6.38-7.64-9.56-.91-1.13-1.32-1.14-2.24.01-2.55,3.19-5.08,6.38-7.63,9.57-.7.87-1.53,1.02-2.1.38-.61-.69-.34-1.32.16-1.95,2.16-2.7,4.31-5.41,6.47-8.12.15-.18.28-.38.55-.75-1.49,0-2.82,0-4.14,0-.76,0-1.52.02-2.28-.01-1.99-.08-3.56-1.61-3.58-3.6-.05-3.39-.05-6.78,0-10.17.03-2.1,1.62-3.6,3.74-3.66.47-.01.94,0,1.59,0-1.78-2.07-2.19-4.19-.81-6.41,1.08-1.74,2.76-2.52,4.79-2.26,2.25.29,3.64,1.68,4.35,4.08.61-1.83,1.54-3.18,3.23-3.79,1.72-.63,3.34-.39,4.81.71,2.37,1.78,2.56,4.71.4,7.67,3.05-.21,5.17.75,5.36,4.18,1.46-.72,2.84-1.43,4.24-2.1,2.92-1.41,5.65.28,5.66,3.51,0,2.11.02,4.22,0,6.33-.03,3.16-2.77,4.86-5.61,3.48-1.39-.67-2.78-1.37-4.25-2.11ZM250.09,306.62c-3.18,0-6.36,0-9.54,0-1.22,0-1.61.41-1.61,1.62,0,3.04,0,6.09,0,9.13,0,1.27.4,1.69,1.66,1.7,6.36,0,12.73,0,19.09,0,1.26,0,1.66-.42,1.66-1.69,0-3.01,0-6.02,0-9.03,0-1.35-.37-1.73-1.71-1.74-3.18,0-6.36,0-9.54,0ZM271.31,312.87c0-1.07.02-2.14,0-3.21-.03-1.28-.84-1.79-2.01-1.23-1.65.79-3.29,1.6-4.91,2.45-.26.14-.49.56-.52.86-.07.75-.07,1.52,0,2.28.02.28.24.66.48.78,1.65.87,3.31,1.71,4.99,2.51,1.11.53,1.93,0,1.96-1.23.03-1.07,0-2.14,0-3.21ZM247.63,300.34c-.02-1.37-1.18-2.48-2.56-2.44-1.33.04-2.41,1.16-2.4,2.49.01,1.39,1.12,2.49,2.5,2.48,1.38-.01,2.48-1.14,2.46-2.53ZM257.6,300.41c.02-1.32-1.06-2.46-2.38-2.51-1.38-.05-2.55,1.05-2.58,2.42-.03,1.39,1.06,2.53,2.44,2.55,1.39.02,2.5-1.06,2.52-2.46ZM251.59,304.11c-.53-.93-1-1.77-1.46-2.58-.48.86-.95,1.7-1.43,2.58h2.9Z"/>
        <path class="cls-3" d="M250.09,306.62c3.18,0,6.36,0,9.54,0,1.34,0,1.71.39,1.71,1.74,0,3.01,0,6.02,0,9.03,0,1.27-.4,1.69-1.66,1.69-6.36,0-12.73,0-19.09,0-1.25,0-1.65-.42-1.66-1.7,0-3.04,0-6.09,0-9.13,0-1.22.4-1.62,1.61-1.62,3.18-.01,6.36,0,9.54,0Z"/>
        <path class="cls-3" d="M271.31,312.87c0,1.07.02,2.14,0,3.21-.03,1.23-.85,1.76-1.96,1.23-1.68-.8-3.35-1.64-4.99-2.51-.24-.13-.46-.5-.48-.78-.07-.75-.07-1.52,0-2.28.03-.31.26-.73.52-.86,1.62-.86,3.26-1.66,4.91-2.45,1.17-.56,1.99-.05,2.01,1.23.02,1.07,0,2.14,0,3.21Z"/>
        <path class="cls-3" d="M247.63,300.34c.02,1.39-1.07,2.52-2.46,2.53-1.38.01-2.49-1.09-2.5-2.48,0-1.33,1.07-2.45,2.4-2.49,1.38-.04,2.53,1.06,2.56,2.44Z"/>
        <path class="cls-3" d="M257.6,300.41c-.02,1.4-1.14,2.48-2.52,2.46-1.38-.02-2.46-1.16-2.44-2.55.03-1.37,1.2-2.47,2.58-2.42,1.33.05,2.41,1.18,2.38,2.51Z"/>
        <path class="cls-3" d="M251.59,304.11h-2.9c.49-.88.96-1.72,1.43-2.58.46.81.93,1.65,1.46,2.58Z"/>
      </g>
      <path class="cls-1" d="M254.32,175.86c4.06,3.89,8.34,7.59,12.13,11.73,4.21,4.6,3.62,9.74.61,14.85-1.84,3.12-4.21,5.7-7.2,7.73-.91.62-1.83,1.26-2.64,2-.59.54-1.01,1.28-1.5,1.93.81.47,1.58,1.21,2.45,1.38,2.97.55,6.02.73,8.97,1.37,8.69,1.87,16.63,5.3,23,11.73,5.31,5.36,8.39,11.83,8.54,19.34.26,12.64.13,25.3.14,37.95,0,8.1.09,16.21-.08,24.31-.38,18.23-12.71,35.51-29.85,41.62-4.23,1.51-8.77,2.17-13.16,3.22h-7c-2.63-.48-5.31-.76-7.87-1.48-18.54-5.25-29.96-17.38-34.33-36.09-.66-2.81-.83-5.78-.85-8.68-.08-19.53-.07-39.06-.04-58.59.02-10.56,4.84-18.63,13.21-24.71,8.04-5.85,17.25-8.51,26.98-9.69.28-.03.56-.07.98-.12-.36-5.36,2.98-8.53,6.67-11.55,1.89-1.54,3.81-3.11,5.38-4.95,2.29-2.69,2.14-5.1-.31-7.6-2.36-2.41-4.78-4.79-7.4-6.92-3.64-2.96-3.12-6.75,1.08-8.77.7,0,1.4,0,2.1,0ZM214.49,281.2c-.04.51-.09.86-.09,1.2,0,8.86-.12,17.73.04,26.58.35,18.53,13.48,33.62,31.76,36.7,22.26,3.76,43.27-13.44,43.78-35.96.2-9.03.06-18.07.08-27.11,0-.33-.07-.67-.12-1.12-25.16,8.19-50.22,6.78-75.45-.29ZM248.29,224.39c-7.91.77-15.29,2.66-21.97,6.76-7.94,4.88-12.42,11.66-11.97,21.34.23,5,.04,10.02.04,15.03,0,1.45,0,2.89,0,4.38,11.11,3.46,22.31,5.54,33.9,6.12v-53.63ZM257.25,277.9c.2.1.31.19.41.18,10.79-.22,21.31-1.94,31.45-5.72.45-.17.91-1.01.91-1.53.04-7.4.1-14.8-.04-22.2-.09-4.62-1.75-8.75-4.66-12.36-4.23-5.25-9.91-8.24-16.26-9.96-3.82-1.04-7.79-1.54-11.81-2.3v53.89Z"/>
      <text class="cls-2" transform="translate(313.66 315.95)"><tspan class="cls-6" x="0" y="0">Africr</tspan><tspan class="cls-5" x="220.4" y="0"> </tspan><tspan class="cls-6" x="253.81" y="0">a </tspan></text>
      <g>
        <path class="cls-3" d="M277.02,257.4c-.01-.36.23-.48.6-.33,1.48.59,2.97,1.17,4.45,1.76.71.28,1.43.55,2.14.86.15.07.25.25.38.38-.13.12-.25.3-.41.35-.77.25-1.55.49-2.34.69-.32.08-.47.25-.55.55-.24.84-.49,1.68-.77,2.51-.05.16-.23.28-.34.42-.14-.13-.35-.23-.42-.39-.9-2.17-1.77-4.35-2.65-6.53-.04-.1-.07-.2-.1-.27ZM280.05,263.58s.07,0,.11,0c.24-.77.49-1.54.7-2.31.1-.34.26-.53.62-.61.71-.17,1.41-.38,2.25-.62-2.09-.82-4.04-1.6-6.09-2.41.84,2.07,1.62,4.01,2.41,5.95Z"/>
        <path class="cls-3" d="M264.47,262.04v-2.88h3.03v2.88h-3.03ZM265.04,261.51h1.92v-1.8h-1.92v1.8Z"/>
        <path class="cls-3" d="M278.98,247.27v-2.87h2.98v2.87h-2.98ZM279.5,246.74h1.93v-1.8h-1.93v1.8Z"/>
        <path class="cls-3" d="M267.33,247.44h-3v-2.89h3v2.89ZM266.79,246.91v-1.81h-1.92v1.81h1.92Z"/>
        <path class="cls-3" d="M271.45,246.15c-.18,0-.37.03-.54-.01-.11-.02-.26-.14-.27-.24,0-.09.13-.27.22-.27.43-.03.87-.03,1.31,0,.08,0,.22.18.2.24-.03.1-.14.24-.24.26-.22.05-.45.03-.67.04,0,0,0,0,0-.01Z"/>
        <path class="cls-3" d="M266.2,254.48c0,.19.03.39-.01.58-.02.1-.16.24-.24.25-.09,0-.26-.13-.27-.22-.03-.43-.03-.86,0-1.3,0-.08.17-.22.23-.21.1.02.24.13.26.23.05.21.04.44.05.67,0,0-.01,0-.02,0Z"/>
        <path class="cls-3" d="M265.6,249.06c0-.18-.03-.37.01-.54.03-.12.16-.21.24-.31.09.08.26.16.27.25.03.43.03.87,0,1.3,0,.08-.17.22-.24.2-.1-.02-.25-.14-.26-.23-.04-.22-.01-.45-.01-.67h0Z"/>
        <path class="cls-3" d="M280.99,256.83c0,.19.03.39-.01.58-.02.1-.15.25-.25.26-.08,0-.26-.14-.26-.22-.03-.43-.03-.87,0-1.3,0-.08.16-.22.23-.21.1.02.25.13.27.22.05.22.03.44.04.67,0,0,0,0,0,0Z"/>
        <path class="cls-3" d="M265.7,257.08c0-.18-.03-.37,0-.54.02-.11.14-.2.21-.29.09.08.26.15.27.24.04.42.05.84.03,1.26,0,.09-.17.18-.25.27-.09-.1-.23-.19-.25-.31-.04-.2-.01-.42-.01-.63h0Z"/>
        <path class="cls-3" d="M276.88,245.55c.19,0,.39-.03.58.01.11.02.26.15.26.24,0,.09-.14.27-.22.27-.43.03-.87.03-1.3,0-.08,0-.23-.16-.22-.23.02-.1.13-.25.22-.27.22-.04.45-.01.67-.01,0,0,0-.01,0-.02Z"/>
        <path class="cls-3" d="M266.16,251.78c0,.2.03.4-.01.58-.03.11-.17.19-.27.28-.08-.09-.23-.17-.24-.27-.03-.4-.03-.81,0-1.22,0-.09.16-.25.24-.25.09,0,.24.14.26.24.04.2.01.42.01.63h0Z"/>
        <path class="cls-3" d="M268.85,245.65c.18,0,.37-.03.54.01.12.03.21.15.31.24-.08.09-.16.25-.25.26-.42.03-.84.03-1.26,0-.08,0-.23-.18-.22-.27,0-.09.15-.22.26-.24.2-.04.42-.01.63-.01h0Z"/>
        <path class="cls-3" d="M274.18,246.11c-.2,0-.4.03-.58,0-.11-.02-.2-.14-.29-.22.09-.1.17-.28.27-.29.4-.03.81-.03,1.21,0,.09,0,.18.15.27.24-.1.09-.18.24-.29.27-.18.04-.39.01-.58.01,0,0,0,0,0,0Z"/>
        <path class="cls-3" d="M280.95,254.19c0,.18.03.37-.01.54-.02.1-.15.18-.23.27-.09-.08-.26-.16-.26-.24-.03-.42-.03-.84,0-1.26,0-.09.16-.17.25-.25.08.09.22.17.24.27.04.22.01.45.01.67,0,0,0,0,0,0Z"/>
        <path class="cls-3" d="M274.28,260.78c-.18.01-.37.06-.54.02-.13-.03-.24-.17-.36-.26.11-.09.22-.25.34-.27.36-.04.72-.05,1.08-.02.12.01.22.18.33.27-.1.08-.2.2-.32.23-.17.04-.36.01-.54.01,0,0,0,0,0,0Z"/>
        <path class="cls-3" d="M280.93,251.43c0,.2.03.4-.01.59-.03.12-.16.21-.25.32-.09-.1-.26-.19-.27-.29-.03-.39-.04-.78,0-1.17,0-.1.17-.2.27-.29.09.09.23.17.25.27.04.19.01.39.01.59,0,0,0,0,0,0Z"/>
        <path class="cls-3" d="M268.87,260.85c-.18,0-.37.03-.54-.01-.11-.03-.19-.17-.29-.26.09-.08.17-.23.26-.23.39-.03.78-.05,1.17-.02.11,0,.21.16.31.24-.11.09-.21.23-.33.27-.18.05-.39.01-.58.01,0,0,0,0,0,.01Z"/>
        <path class="cls-3" d="M280.88,248.8c0,.19.03.4-.01.58-.02.1-.16.24-.24.24-.09,0-.25-.14-.25-.23-.03-.42-.03-.84,0-1.26,0-.08.16-.2.26-.22.06-.01.21.13.22.22.03.22.01.45.01.67,0,0,0,0,.01,0Z"/>
        <path class="cls-3" d="M276.88,260.76c-.18,0-.37.04-.54-.01-.11-.03-.19-.18-.29-.28.09-.08.19-.22.29-.23.39-.03.78-.03,1.17,0,.09,0,.24.16.24.25,0,.09-.14.23-.24.25-.2.04-.42.01-.63.01,0,0,0,.01,0,.02Z"/>
        <path class="cls-3" d="M271.59,260.27c.19,0,.4-.03.58.01.12.03.21.17.31.26-.1.09-.19.25-.3.26-.39.03-.78.04-1.16,0-.11,0-.21-.16-.32-.24.12-.09.22-.22.35-.25.17-.04.36-.01.54-.01,0-.01,0-.02,0-.03Z"/>
      </g>
      <text class="cls-4" transform="translate(541.02 322.21)"><tspan x="0" y="0">é</tspan></text>
    </g>
  </g>
</svg>